PathFileType	4	(X/Y/Z)	Kaydara	
DataRate	CameraRate	NumFrames	NumMarkers	Units	OrigDataRate	OrigDataStartFrame	OrigNumFrames	
240.00	240.00	4	72	mm	240.00	45	359	
Frame#	Time	Hips			RightUpLeg			RightLeg			RightFoot			RightFoot_End			LeftUpLeg			LeftLeg			LeftFoot			LeftFoot_End			Spine			Spine1			Spine2			Spine3			Neck			Head			Head_End			RightShoulder			RightArm			RightForeArm			RightHand			RightHandThumb1			RightHandThumb2			RightHandThumb3			RightHandThumb3_End			RightInHandIndex			RightHandIndex1			RightHandIndex2			RightHandIndex3			RightHandIndex3_End			RightInHandMiddle			RightHandMiddle1			RightHandMiddle2			RightHandMiddle3			RightHandMiddle3_End			RightInHandRing			RightHandRing1			RightHandRing2			RightHandRing3			RightHandRing3_End			RightInHandPinky			RightHandPinky1			RightHandPinky2			RightHandPinky3			RightHandPinky3_End			LeftShoulder			LeftArm			LeftForeArm			LeftHand			LeftHandThumb1			LeftHandThumb2			LeftHandThumb3			LeftHandThumb3_End			LeftInHandIndex			LeftHandIndex1			LeftHandIndex2			LeftHandIndex3			LeftHandIndex3_End			LeftInHandMiddle			LeftHandMiddle1			LeftHandMiddle2			LeftHandMiddle3			LeftHandMiddle3_End			LeftInHandRing			LeftHandRing1			LeftHandRing2			LeftHandRing3			LeftHandRing3_End			LeftInHandPinky			LeftHandPinky1			LeftHandPinky2			LeftHandPinky3			LeftHandPinky3_End			
		X1	Y1	Z1	X2	Y2	Z2	X3	Y3	Z3	X4	Y4	Z4	X5	Y5	Z5	X6	Y6	Z6	X7	Y7	Z7	X8	Y8	Z8	X9	Y9	Z9	X10	Y10	Z10	X11	Y11	Z11	X12	Y12	Z12	X13	Y13	Z13	X14	Y14	Z14	X15	Y15	Z15	X16	Y16	Z16	X17	Y17	Z17	X18	Y18	Z18	X19	Y19	Z19	X20	Y20	Z20	X21	Y21	Z21	X22	Y22	Z22	X23	Y23	Z23	X24	Y24	Z24	X25	Y25	Z25	X26	Y26	Z26	X27	Y27	Z27	X28	Y28	Z28	X29	Y29	Z29	X30	Y30	Z30	X31	Y31	Z31	X32	Y32	Z32	X33	Y33	Z33	X34	Y34	Z34	X35	Y35	Z35	X36	Y36	Z36	X37	Y37	Z37	X38	Y38	Z38	X39	Y39	Z39	X40	Y40	Z40	X41	Y41	Z41	X42	Y42	Z42	X43	Y43	Z43	X44	Y44	Z44	X45	Y45	Z45	X46	Y46	Z46	X47	Y47	Z47	X48	Y48	Z48	X49	Y49	Z49	X50	Y50	Z50	X51	Y51	Z51	X52	Y52	Z52	X53	Y53	Z53	X54	Y54	Z54	X55	Y55	Z55	X56	Y56	Z56	X57	Y57	Z57	X58	Y58	Z58	X59	Y59	Z59	X60	Y60	Z60	X61	Y61	Z61	X62	Y62	Z62	X63	Y63	Z63	X64	Y64	Z64	X65	Y65	Z65	X66	Y66	Z66	X67	Y67	Z67	X68	Y68	Z68	X69	Y69	Z69	X70	Y70	Z70	X71	Y71	Z71	X72	Y72	Z72	

45	0.183	4198.941	914.58397	126.699	4255.301462889636	898.0729862056843	53.51762584450475	4160.605636762876	501.0724354265336	-41.04844159369981	4142.478404211965	109.5879911999429	-116.69432748567392	3990.7150427954707	32.677591232885234	-29.568129552670246	4157.069426903676	904.9637554231675	211.13248362614425	4065.784046049419	503.1616095666253	286.2165977162437	3995.1810667104533	78.69952415689451	378.5875412028304	3873.536132509915	-3.748094505818665	256.34220937877967	4131.437086761116	1031.8415152448038	79.76817041458709	4069.195714427288	1088.792461071537	31.45179957427464	4001.3053353948226	1140.927566713202	-22.596427743734466	3932.3382636592282	1178.826232446664	-79.56621145483908	3857.5757616347037	1219.819277630264	-138.76702184669057	3787.8589237761894	1257.4905204295842	-190.05537179381977	3648.232921959513	1334.5823526640174	-196.355763826286	3903.411234885249	1208.4663286602922	-143.7548309138439	3966.543513544072	1204.0099157678148	-264.3138409746383	4056.6329356796527	936.0587023391253	-310.5375963169407	4056.714877580094	791.4583485228353	-517.2839243717741	4062.5728822693386	797.3265614221214	-550.2856492730456	4041.5555267428026	795.8968365642245	-579.5772116033581	4026.5504608974875	792.0772173115636	-598.8761710236352	4013.7260762426567	786.4771442563037	-614.0241250648379	4064.5188044652873	787.5828405301903	-549.9597558047839	4063.2550644683315	771.8741595039521	-593.2712074336181	4047.794672086453	761.7917056807511	-620.2691372519287	4030.577741125317	759.5089011541073	-632.8637506488823	4011.197343227968	760.3077347426074	-640.4620289053066	4062.8672584996716	780.4892480329418	-545.3119254514986	4060.74548248773	761.3303051213435	-585.0434944549633	4043.6430900320156	749.4443684165637	-613.7459213981182	4022.7601284244893	746.2660739432624	-628.5772571623417	4001.500314715337	746.933937429204	-636.7143853699858	4061.878084486298	775.8482758414893	-540.9563310707915	4059.5432580814518	754.5609505263681	-572.8803204107263	4044.401324749132	743.3281479621888	-597.0600491071674	4024.133012028118	739.7988355387201	-610.9213231195666	4004.0841665312555	740.207115004558	-618.3615258181246	4059.6292588401316	771.1923818798118	-534.4188573045739	4056.5888385768953	748.6909870545248	-559.7948813819424	4044.1055589816347	738.4272840647079	-577.711186237499	4029.1485015835938	735.2391850918345	-587.1222153570328	4011.2887702621288	735.2476035301094	-593.3104862363757	3861.288871596094	1204.079954780299	-93.23614728095315	3809.000560641117	1131.801083381487	9.788383762880764	3953.378361550136	970.6260451473918	-172.2234515219827	4061.41239163483	857.7067256281848	-395.423601155372	4093.246379594133	870.3096401698916	-419.4418137618847	4136.5631262145225	866.0533348087025	-427.9292640634929	4165.67928195078	859.7455170763698	-433.89767195859935	4189.054229181073	851.6264961026601	-438.9226693490726	4091.431942764611	860.2371140574693	-423.90414704356186	4137.6299703554305	848.4209560332873	-458.7586076550129	4174.973948713733	836.1517094553791	-472.05464760336196	4198.312278989819	829.9435148417251	-471.5536212268255	4217.7114277646115	825.7625582869897	-465.22520026533687	4087.2160642351255	851.3616616465157	-422.3271605286725	4129.994375755257	835.0369588976852	-455.47328571067044	4170.044442922959	820.5109473686057	-469.64708658967163	4197.86554426683	812.4749905526521	-468.88191878163457	4218.928512122959	807.6348316516493	-461.87935040098296	4083.008226010933	845.4095632918968	-420.44218133497577	4117.545925971073	825.6618961779619	-448.85840140979917	4151.671755774485	811.8635409449564	-460.81656447116984	4178.0921474810875	803.508185674268	-459.86830167143984	4197.699856544039	798.6709768585255	-453.18450100094964	4077.217215701812	838.7588209170361	-416.3256384551528	4105.170602052406	816.5990353573018	-440.2601864811609	4131.127109124712	803.861294924045	-449.093589726834	4149.735448425493	796.9500674698195	-448.0428746200676	4166.723233266114	792.1950155813867	-441.91547457513394
46	0.188	4198.941	914.58397	126.699	4255.304704587553	898.0922387264541	53.513673018377894	4160.645241863813	501.08374919993616	-41.056144750589496	4142.475277107721	109.59980168928642	-116.7005336541759	3990.713579106776	32.69431756648613	-29.567089238388498	4157.067839234428	904.9428246660731	211.13098510447924	4065.7790256310223	503.1356159946773	286.18301391311724	3995.186647754383	78.67670247206858	378.57940703405046	3873.541247979274	-3.7686679063756086	256.3330015194207	4131.429566853607	1031.8481124371062	79.79265549146686	4069.174114506507	1088.7782486520857	31.47079104529319	4001.2765800991538	1140.8919061313682	-22.587628737542627	3932.319646863557	1178.776934549772	-79.57771587727021	3857.5685542251376	1219.757009747566	-138.80091853388032	3787.8621140905047	1257.418022629606	-190.1103552171716	3648.2650444047977	1334.555319744084	-196.44265554313822	3903.424014762071	1208.4303829296077	-143.77720136484973	3966.6479816569163	1203.9620883752393	-264.31023443963346	4056.8604663753918	935.94616658747	-310.6666213072171	4056.857521249677	791.0528017671321	-517.7818562939956	4062.72454370526	796.873650390321	-550.9224210605532	4041.6681265992906	795.3605093472862	-580.3240939009851	4026.6299013916364	791.477277739892	-599.6908195957017	4013.7727754096304	785.8194497695698	-614.8876405319716	4064.6528898450993	787.1066371287432	-550.579587416142	4063.341179384691	771.2658220607445	-594.0343981057772	4047.8316284075468	761.08689107545	-621.1199139421564	4030.584050533583	758.7563748838659	-633.7584337391548	4011.1782294285476	759.5239923017821	-641.3859400573521	4062.986059426549	780.0024106240737	-545.9019413459	4060.8092319816687	760.7088371657696	-585.7572134392803	4043.6513161920766	748.716644625866	-614.5508004235749	4022.7304783403397	745.4803174145943	-629.432989283321	4001.4424085657447	746.1137955896627	-637.6010683918481	4061.987422819119	775.3572806297223	-541.521716957485	4059.5953715663827	753.9456422992313	-573.5354643298339	4044.403207511384	742.6194376808558	-597.7899405615278	4024.0973844365294	739.0337282697291	-611.6977660385851	4004.021509326873	739.4094783806327	-619.1658852656186	4059.7282008164816	770.700552679254	-534.9509638800458	4056.629244693434	748.0845267098977	-560.3891577095947	4044.1031248028803	737.7453408184095	-578.3575802389381	4029.11744138358	734.5157723740264	-587.7988216765557	4011.233037638662	734.4951826498349	-594.0096682498628	3861.253097894315	1203.9995335539677	-93.26633366224772	3808.9044461441335	1131.7266191050157	9.766464759192578	3953.295592966558	970.5923284356097	-172.70434624646134	4061.346952072832	857.6570190544693	-396.10810161708656	4093.3170645093005	870.333742317557	-420.0850853711281	4136.700774103347	866.0588609658594	-428.39978156173095	4165.845517582699	859.723435979826	-434.25144394163254	4189.228859036546	851.568848250507	-439.18216024375124	4091.4535240398695	860.2209445237353	-424.5704049372768	4137.704206539588	848.3775876100872	-459.3495147550826	4175.0682929894165	836.0597706671826	-472.51829153482015	4198.420663087635	829.8191707959027	-471.90002003363173	4217.8324697209355	825.609902408696	-465.44883870801493	4087.185946297992	851.3051263599322	-423.0021669041754	4129.98765604386	834.9320690991941	-456.0795500237484	4170.052652302209	820.3477826181102	-470.11578679445375	4197.887326542954	812.2701988731069	-469.20979335753987	4218.962509201879	807.3978309064078	-462.07320747970243	4082.940299264341	845.3254031143662	-421.1260590292264	4117.466324454284	825.511004626318	-449.49062138182387	4151.597960854776	811.6565395424636	-461.330316565018	4178.027617999413	803.2582073520689	-460.2469778260707	4197.644998633218	798.3893757597642	-453.4375280333256	4077.103710804736	838.6420369321762	-417.01587351506424	4105.018510265606	816.401594301363	-440.9095135135623	4130.9684760689415	803.6109161784626	-449.65050895017384	4149.578160095424	796.6644680989746	-448.50245704176064	4166.571396333193	791.8791747090611	-442.26443643216805
47	0.192	4198.941	914.58397	126.699	4255.306792639394	898.1118922420807	53.50881986762651	4160.685593737722	501.0953162467393	-41.06592686506653	4142.47293879635	109.61184133286262	-116.70867815179726	3990.7129136870244	32.711007440261604	-29.56820710912884	4157.06819262679	904.92188947478	211.13030113304592	4065.7778245616846	503.10933566356357	286.1510543190257	3995.1924121714246	78.65386794470722	378.5709923804818	3873.5461882053387	-3.788682720140379	256.3234806430669	4131.418586619946	1031.852915449175	79.81757104797684	4069.1470744817475	1088.7582321925315	31.488289739342488	4001.2413633545925	1140.846550585244	-22.58257692008689	3932.295460962701	1178.7153538594964	-79.59571917221943	3857.5568378871053	1219.6800071072391	-138.84430208207408	3787.861741340393	1257.3286602641153	-190.17762874481517	3648.293361236255	1334.51143005896	-196.53908510870377	3903.432003562477	1208.3796015274543	-143.80706901966556	3966.743765581763	1203.8878180098907	-264.30717394861233	4057.066764092033	935.8184206288497	-310.77481197517625	4057.0086736386834	790.6557327759347	-518.2649457692464	4062.897555268707	796.4480306999604	-551.5477208442563	4041.8127369747885	794.8650097910105	-581.0749363643564	4026.7474011838804	790.9256071166376	-600.5219396538159	4013.861400286453	785.2145293755282	-615.7795669532517	4064.8045389781414	786.6525058656218	-551.1940397535926	4063.453751214766	770.6922257392513	-594.8155600989224	4047.9014209599222	760.4247173161344	-622.0078024395809	4030.6276967200633	758.051531719509	-634.7004658745634	4011.2005380655282	758.7921948653639	-642.3645522177509	4063.1183838710313	779.5317609731704	-546.4907012723811	4060.892993691079	760.1127313264622	-586.4946814718405	4043.6859539592588	748.022084519103	-615.4007865314326	4022.732400076318	744.7334150089697	-630.3464057832466	4001.4204136447647	745.3369802459789	-638.5535902148074	4062.107194134212	774.8779914155325	-542.0881510385701	4059.6610236531064	753.34636839731	-574.2160275216855	4044.4236223370335	741.9327103194431	-598.5643100761382	4024.0849560839993	738.2956408066561	-612.5310541474196	4003.9859845219326	738.6428524118634	-620.0348686384286	4059.8338282216705	770.2149060035005	-535.4862015422258	4056.6768465613613	747.4848138688424	-561.0101655268553	4044.110959934217	737.073561693617	-579.0465524757319	4029.0996073522037	733.8055461565853	-588.5273098607156	4011.193757761602	733.7591086163682	-594.7677857239031	3861.2123811089987	1203.906141988055	-93.30604014367199	3808.803300377287	1131.6518583262332	9.733984790299989	3953.2585812068533	970.6057483907491	-173.2366482863635	4061.298925922065	857.6434548317746	-396.8379348311228	4093.4008130844436	870.3884784604148	-420.7598996008421	4136.840578163339	866.0819989437821	-428.9002697963008	4166.006407950955	859.7102808749638	-434.63609216085445	4189.39197088979	851.5132129368385	-439.47499359221536	4091.488735686607	860.2370829418626	-425.27332455595166	4137.783927634433	848.3585910451565	-459.97465517569617	4175.159105752638	835.9823696999096	-473.01867741818415	4198.518627625057	829.7011883255383	-472.2855842172697	4217.936525733837	825.4554493128321	-465.7142309057556	4087.1698402860166	851.2820115101549	-423.719559379656	4129.9872107704305	834.8534620259613	-456.7289270546404	4170.057370051983	820.2003368457933	-470.6311056091647	4197.897341850339	812.0713419169771	-469.5875789840601	4218.97757133989	807.1578768103839	-462.31998700207095	4082.8868949019306	845.2756965719258	-421.8563990609519	4117.394850661803	825.389197506086	-450.1734053898297	4151.523867489176	811.4695967746902	-461.8984730864675	4177.9548534893665	803.0189464656124	-460.68365094092087	4197.575187695215	798.1101807505697	-453.7515809896243	4077.005292733727	838.5607751105676	-417.75757596000926	4104.876096072973	816.2355570574025	-441.61705407123776	4130.812935163251	803.3850201663	-450.2699233539394	4149.418253220444	796.3966861612423	-449.0277385729246	4166.411034892322	791.5738739994098	-442.6821164035835
48	0.196	4198.941	914.58397	126.699	4255.307778559052	898.1320045934681	53.50309249741212	4160.726715532795	501.1072393724416	-41.07791179382667	4142.471524972706	109.62422425015468	-116.71894924268508	3990.71318866989	32.727750830976206	-29.571681902828693	4157.070396331736	904.9008625988334	211.13038406300726	4065.7801710216318	503.0828138016888	286.1211800824098	3995.198076106087	78.63093780511333	378.5621060077581	3873.550715789173	-3.8083043146580855	256.31346551740705	4131.4043186856115	1031.8560532556453	79.84301159488449	4069.1146852716624	1088.7325657989745	31.50452808195951	4001.199667978909	1140.7917130079773	-22.580844849334433	3932.2655514373746	1178.6418568814368	-79.61951685300377	3857.5402779287515	1219.5887373357812	-138.89615923562025	3787.85728826689	1257.2229454360402	-190.25588606617708	3648.316942567267	1334.4505944062728	-196.64332675254613	3903.434729838441	1208.3142743810085	-143.84359401297192	3966.830270907319	1203.7885940178098	-264.3043872114764	4057.2508704372513	935.6770161410763	-310.8601745381426	4057.1725616191784	790.2742306236612	-518.7441783931151	4063.0954619694326	796.0575777915873	-552.1706327633165	4041.9932445902223	794.4196632373142	-581.8371821356275	4026.9072738769737	790.4326139263031	-601.3760228646406	4013.9967820137717	784.6737573696358	-616.7057664864251	4064.977862047779	786.2286303609671	-551.8127156541857	4063.597627101522	770.1636175102303	-595.6228610838025	4048.009674268501	759.8170129346926	-622.9399328053005	4030.714721654124	757.4070434390215	-635.696266184531	4011.270612191168	758.1256177329507	-643.4036516463838	4063.26884280902	779.0856175769561	-547.0883765539254	4061.0023681893003	759.5523915521258	-587.2649775922418	4043.7535162269146	747.3728291133289	-616.3039061194871	4022.77294085711	744.0385305110432	-631.3247135445597	4001.4417215391395	744.617318198494	-639.5784838258196	4062.2423431092607	774.4187687566022	-542.6662442724714	4059.7463317653715	752.7733931284259	-574.93202762113	4044.4695456991863	741.2797524731747	-599.3923408844036	4024.103252785173	737.5973506772685	-613.4296243163436	4003.9854577758997	737.9206401009527	-620.9763000989788	4059.9514592682926	769.7437957195151	-536.0357187871024	4056.738264152002	746.9019430839195	-561.6688446517235	4044.1364668227966	736.42326482395	-579.7885068141799	4029.102848367247	733.1205495787829	-589.3176033224436	4011.179106890366	733.0519799293968	-595.5942561042183	3861.166651515203	1203.8003612460964	-93.35428738311232	3808.695885893396	1131.5746295526558	9.690755111409254	3953.2604137614608	970.659455608577	-173.8110831254801	4061.2667870759483	857.6655162410306	-397.6049126076895	4093.494913043617	870.4721712293396	-421.4591297959926	4136.979541807077	866.1213506586763	-429.4250321898044	4166.158943103153	859.7049753931852	-435.04677679899663	4189.540701621494	851.4588908440755	-439.7969248193657	4091.535370672063	860.2840783986413	-426.00530954043546	4137.86677781512	848.3620928393217	-460.62711706687867	4175.244183017456	835.9179966509131	-473.54973489814296	4198.604064302433	829.588573726135	-472.705027228893	4218.021567601463	825.298828257537	-466.0169148823286	4087.1660586554485	851.2912581698338	-424.4713567049492	4129.991488201372	834.7998784234874	-457.4138949265729	4170.057279459799	820.0678014646929	-471.18638683760946	4197.894422205942	811.8782597459449	-470.0095398880228	4218.972634348877	806.9155036420632	-462.61484316457035	4082.8466947859056	845.2596665351825	-422.6249263183616	4117.330624701147	825.2957454286345	-450.898621782014	4151.4488713131195	811.302431526834	-462.51360253781627	4177.8734305903245	802.7907770501098	-461.17174845561226	4197.490115750502	797.834432569696	-454.12091040414225	4076.921084570599	838.5146420674417	-418.5421474420548	4104.743151730304	816.1007905607902	-442.37412730058116	4130.660607661554	803.1839192094952	-450.9436273050372	4149.25603350474	796.147553645732	-449.61109877119577	4166.242587042705	791.2805600853046	-443.16159938798194
